<svg width="1440" height="6479" viewBox="0 0 1440 6479" fill="none" xmlns="http://www.w3.org/2000/svg">
<g clip-path="url(#clip0_4170_6485)">
<rect width="1440" height="6479" fill="#0F0F0F"/>
<path d="M159.163 3152.36C157.674 3154.63 158.046 3158.41 160.28 3160.68C162.514 3162.95 164.747 3162.95 166.609 3159.93C168.098 3157.66 167.726 3153.88 165.492 3151.61C163.258 3149.34 161.025 3149.34 159.163 3152.36Z" fill="white" fill-opacity="0.04"/>
<path d="M194.364 3152.99C192.987 3155 193.675 3158.01 196.086 3159.35C201.94 3162.7 210.549 3159.68 208.827 3154.66C207.105 3149.31 197.119 3148.3 194.364 3152.99Z" fill="white" fill-opacity="0.04"/>
<path d="M111.661 3161.49C108.602 3165.03 112.34 3170 118.118 3170C120.838 3170 122.877 3167.51 122.877 3164.68C122.877 3159.36 115.739 3157.23 111.661 3161.49Z" fill="white" fill-opacity="0.04"/>
<path d="M234.34 3162.09C230.145 3166.37 232.081 3170 238.858 3170C242.408 3170 244.99 3168.35 244.344 3166.04C242.731 3161.43 237.245 3159.12 234.34 3162.09Z" fill="white" fill-opacity="0.04"/>
<path d="M76.7129 3175.38C76.7129 3179.39 79.3413 3181.4 83.4716 3180.59C91.3568 3178.99 90.6058 3171.77 82.7206 3170.17C78.9658 3169.37 76.7129 3171.37 76.7129 3175.38Z" fill="white" fill-opacity="0.04"/>
<path d="M138.846 3176.64C136.193 3181.48 143.158 3191.54 149.128 3191.54C155.429 3191.54 155.098 3178.13 148.464 3175.15C141.499 3172.17 141.168 3172.17 138.846 3176.64Z" fill="white" fill-opacity="0.04"/>
<path d="M177.458 3180.27C174.302 3185.65 182.015 3194.62 190.078 3194.62C194.285 3194.62 196.739 3192.11 196.739 3187.44C196.739 3183.49 195.337 3180.27 193.584 3180.27C191.831 3180.27 187.975 3179.19 185.17 3178.11C182.366 3177.04 178.86 3178.11 177.458 3180.27Z" fill="white" fill-opacity="0.04"/>
<path d="M264.715 3185.02C266.26 3190.83 273.371 3191.99 273.68 3186.18C273.68 3183.86 271.516 3181.54 268.424 3181.15C265.333 3179.99 263.787 3181.54 264.715 3185.02Z" fill="white" fill-opacity="0.04"/>
<path d="M109.438 3192.76C106.971 3195.52 106.971 3198.97 108.733 3202.07C111.552 3206.55 112.61 3206.55 117.544 3201.73C122.478 3197.24 122.478 3195.87 118.249 3192.42C114.372 3188.97 112.257 3189.32 109.438 3192.76Z" fill="white" fill-opacity="0.04"/>
<path d="M229.352 3197.37C230.622 3205.04 239.826 3206.51 239.826 3198.46C239.826 3195.54 237.287 3192.61 234.113 3191.88C229.669 3190.78 228.4 3192.25 229.352 3197.37Z" fill="white" fill-opacity="0.04"/>
<path d="M76.7129 3207.5C76.7129 3210.43 78.4066 3212.05 80.7779 3211.4C86.8754 3209.45 87.8917 3202.31 82.1329 3202.31C79.0841 3202.31 76.7129 3204.58 76.7129 3207.5Z" fill="white" fill-opacity="0.04"/>
<path d="M297.706 3203.64C292.987 3207.92 295.165 3211.54 302.789 3211.54C306.782 3211.54 309.686 3209.9 308.96 3207.59C307.145 3202.98 300.973 3200.67 297.706 3203.64Z" fill="white" fill-opacity="0.04"/>
<path d="M145.506 3210.64C135.279 3221.4 145.506 3240.49 158.801 3235.28C166.301 3232.16 166.301 3209.94 158.801 3207.17C151.642 3204.39 151.983 3204.39 145.506 3210.64Z" fill="white" fill-opacity="0.04"/>
<path d="M190.338 3220.55C186.408 3230.37 191.767 3237.39 202.126 3235.99C209.986 3235.28 212.129 3233.18 212.129 3226.16C212.129 3219.14 209.986 3217.04 202.126 3216.33C195.696 3215.63 191.767 3217.04 190.338 3220.55Z" fill="white" fill-opacity="0.04"/>
<path d="M261.708 3219.03C260.682 3220.65 262.05 3223.87 265.129 3226.13C269.576 3229.35 270.944 3229.35 273.681 3225.48C275.391 3222.9 276.759 3220 276.759 3218.39C276.759 3215.17 263.76 3215.49 261.708 3219.03Z" fill="white" fill-opacity="0.04"/>
<path d="M93.9391 3222.71C81.3585 3229.73 88.5474 3246.94 103.644 3246.94C119.1 3246.94 125.93 3229.38 112.99 3222.35C104.363 3218.14 101.847 3218.14 93.9391 3222.71Z" fill="white" fill-opacity="0.04"/>
<path d="M306.308 3241.25C308.111 3246.09 316.407 3247.06 316.768 3242.22C316.768 3240.28 314.243 3238.34 310.636 3238.02C307.029 3237.05 305.226 3238.34 306.308 3241.25Z" fill="white" fill-opacity="0.04"/>
<path d="M278.637 3251.2C279.32 3256.45 282.052 3259.25 286.493 3259.25C296.74 3259.25 295.715 3245.6 285.468 3244.21C278.637 3243.16 277.612 3244.21 278.637 3251.2Z" fill="white" fill-opacity="0.04"/>
<path d="M120.353 3256.62C104.855 3267.63 112.776 3296.18 131.029 3296.18C147.216 3296.18 160.992 3268.66 149.283 3259.03C141.017 3252.15 128.274 3251.12 120.353 3256.62Z" fill="white" fill-opacity="0.04"/>
<path d="M230.982 3256.37C228.585 3262.38 237.831 3276.17 243.996 3276.17C249.475 3276.17 254.612 3260.96 250.845 3255.3C247.763 3249.64 233.037 3250.71 230.982 3256.37Z" fill="white" fill-opacity="0.04"/>
<path d="M64.1998 3260.07C57.5215 3267.28 58.5759 3279.17 66.3087 3284.22C73.69 3288.91 90.5614 3278.81 90.5614 3269.44C90.5614 3255.03 74.7444 3249.62 64.1998 3260.07Z" fill="white" fill-opacity="0.04"/>
<path d="M179.312 3264.84C173.177 3274.61 173.899 3283.67 181.477 3290.3C195.189 3302.51 218.282 3294.49 218.282 3277.4C218.282 3259.96 188.693 3250.19 179.312 3264.84Z" fill="white" fill-opacity="0.04"/>
<path d="M284.83 3286.58C285.552 3290.78 288.438 3294.64 291.324 3294.64C299.262 3294.64 298.179 3280.97 290.242 3279.57C284.83 3278.51 283.748 3279.92 284.83 3286.58Z" fill="white" fill-opacity="0.04"/>
<path d="M314.634 3280.8C309.914 3285.8 312.092 3290.02 319.716 3290.02C323.71 3290.02 326.614 3288.1 325.888 3285.41C324.073 3280.03 317.901 3277.34 314.634 3280.8Z" fill="white" fill-opacity="0.04"/>
<path d="M147.131 3305.84C127.148 3316.37 138.016 3342.34 162.206 3342.34C177.632 3342.34 182.891 3337.08 182.891 3322.34C182.891 3313.21 180.787 3309.7 172.373 3305.49C160.103 3299.17 159.051 3299.17 147.131 3305.84Z" fill="white" fill-opacity="0.04"/>
<path d="M256.716 3302.68C254.25 3303.73 252.137 3308.29 252.137 3313.19C252.137 3319.49 253.898 3321.59 258.125 3320.54C264.817 3319.14 268.691 3308.29 263.76 3303.73C262.351 3302.33 258.829 3301.98 256.716 3302.68Z" fill="white" fill-opacity="0.04"/>
<path d="M88.5438 3308.09C86.1302 3310.5 84.4062 3316.7 84.4062 3321.86C84.4062 3334.59 97.5085 3341.47 110.266 3335.62C121.989 3330.11 124.403 3322.89 117.507 3312.57C111.3 3303.28 95.7845 3300.87 88.5438 3308.09Z" fill="white" fill-opacity="0.04"/>
<path d="M51.3737 3312.68C46.4123 3325.97 65.1949 3334.47 74.0546 3323.39C77.5985 3318.96 77.5985 3316.74 74.0546 3312.31C68.03 3304.92 54.2088 3305.29 51.3737 3312.68Z" fill="white" fill-opacity="0.04"/>
<path d="M207.599 3314.83C194.76 3328.95 198.23 3343.44 214.887 3347.78C222.174 3349.6 226.338 3348.15 232.932 3341.27C245.424 3328.23 244.036 3319.18 228.768 3310.49C218.357 3305.05 216.275 3305.42 207.599 3314.83Z" fill="white" fill-opacity="0.04"/>
<path d="M283.84 3323.01C280.225 3327.43 280.586 3328.91 284.925 3330.75C292.156 3333.32 298.302 3329.64 298.302 3322.65C298.302 3316.02 289.625 3316.02 283.84 3323.01Z" fill="white" fill-opacity="0.04"/>
<path d="M313.798 3325.42C316.046 3332.72 326 3333.88 326 3326.95C326 3323.11 323.11 3320.8 319.257 3320.8C315.404 3320.8 313.156 3322.72 313.798 3325.42Z" fill="white" fill-opacity="0.04"/>
<path d="M246.043 3347.43C239.823 3355.35 243.279 3365.43 252.61 3365.43C263.668 3365.43 269.543 3355.35 263.668 3347.79C257.793 3340.59 251.573 3340.59 246.043 3347.43Z" fill="white" fill-opacity="0.04"/>
<path d="M60.2248 3354.98C57.9972 3360 64.6801 3370.04 70.2491 3370.04C71.7342 3370.04 75.8181 3367.7 79.1596 3364.68C83.6148 3360.67 83.986 3358.32 80.6446 3354.64C75.0756 3348.28 62.8237 3348.62 60.2248 3354.98Z" fill="white" fill-opacity="0.04"/>
<path d="M125.763 3353.74C118.28 3358.17 117.6 3374.84 125.082 3381.99C135.966 3392.88 153.653 3384.71 153.653 3369.06C153.653 3356.13 136.987 3347.28 125.763 3353.74Z" fill="white" fill-opacity="0.04"/>
<path d="M183.199 3355.19C167.452 3365.85 176.757 3391.63 195.366 3388.19C209.681 3385.79 215.765 3365.16 205.387 3355.19C198.587 3348.32 193.219 3348.32 183.199 3355.19Z" fill="white" fill-opacity="0.04"/>
<path d="M309.928 3356.69C306.437 3362.22 314.467 3368.4 319.354 3363.84C323.544 3359.94 320.751 3353.12 315.514 3353.12C313.768 3353.12 311.324 3354.74 309.928 3356.69Z" fill="white" fill-opacity="0.04"/>
<path d="M277.452 3361.42C274.089 3365.86 274.425 3367.33 279.134 3369.18C286.869 3372.51 292.587 3365.49 286.533 3359.94C282.834 3356.62 280.816 3356.99 277.452 3361.42Z" fill="white" fill-opacity="0.04"/>
<path d="M88.5874 3385.97C85.2908 3394.34 89.6863 3402.36 97.7447 3402.36C107.635 3402.36 110.931 3391.06 103.239 3385.24C94.8143 3379.05 91.1514 3379.41 88.5874 3385.97Z" fill="white" fill-opacity="0.04"/>
<path d="M223.658 3391.83C220.115 3398.69 220.469 3400.85 226.138 3404.82C234.996 3411.31 245.626 3401.93 239.602 3392.56C233.933 3383.18 228.619 3383.18 223.658 3391.83Z" fill="white" fill-opacity="0.04"/>
<path d="M260.498 3396.33C257.543 3403.06 264.93 3409.09 272.687 3406.25C279.705 3403.77 277.119 3393.14 268.993 3391.72C265.669 3391.01 261.606 3393.14 260.498 3396.33Z" fill="white" fill-opacity="0.04"/>
<path d="M300.749 3393.79C295.912 3398.38 298.676 3405.43 305.24 3405.43C309.041 3405.43 312.15 3404.02 312.15 3402.26C312.15 3397.67 303.168 3390.97 300.749 3393.79Z" fill="white" fill-opacity="0.04"/>
<path d="M122.226 3404.13C117.739 3409.1 119.81 3422.6 125.677 3424.73C134.305 3428.29 143.278 3417.63 138.447 3409.81C134.305 3403.06 126.022 3400.22 122.226 3404.13Z" fill="white" fill-opacity="0.04"/>
<path d="M157.937 3410.73C152.262 3417.95 155.809 3426.98 164.676 3426.98C172.479 3426.98 180.992 3414.7 177.445 3408.93C174.253 3403.52 162.903 3404.6 157.937 3410.73Z" fill="white" fill-opacity="0.04"/>
<path d="M194.434 3414.04C192.03 3420.69 195.465 3426.98 201.647 3426.98C207.143 3426.98 214.699 3414.41 211.264 3410.71C207.143 3406.64 196.151 3408.49 194.434 3414.04Z" fill="white" fill-opacity="0.04"/>
<path d="M75.9777 3419.33C74.6379 3421.99 74.9729 3425.42 76.9826 3427.71C81.6721 3433.05 92.0558 3428.47 90.381 3421.99C88.3713 3415.9 78.9924 3413.99 75.9777 3419.33Z" fill="white" fill-opacity="0.04"/>
<path d="M240.693 3422.82C238.077 3427.64 241.674 3433.13 247.559 3433.13C250.175 3433.13 252.137 3430.04 252.137 3426.26C252.137 3419.05 244.29 3416.64 240.693 3422.82Z" fill="white" fill-opacity="0.04"/>
<path d="M273.802 3430.94C276.331 3437.2 287.529 3438.19 287.529 3432.25C287.529 3428.96 284.278 3426.98 279.943 3426.98C275.608 3426.98 273.08 3428.63 273.802 3430.94Z" fill="white" fill-opacity="0.04"/>
<path d="M211.406 3438.53C208.864 3445.25 212.495 3451.6 219.032 3451.6C225.568 3451.6 228.473 3442.26 223.389 3437.03C217.942 3431.43 213.585 3431.8 211.406 3438.53Z" fill="white" fill-opacity="0.04"/>
<path d="M109.693 3442.49C106.738 3449.23 114.126 3455.25 121.882 3452.42C128.9 3449.94 126.315 3439.3 118.189 3437.89C114.864 3437.18 110.801 3439.3 109.693 3442.49Z" fill="white" fill-opacity="0.04"/>
<path d="M176.118 3451.79C169.42 3458.97 171.183 3462.37 181.054 3462.37C187.399 3462.37 189.867 3460.48 188.809 3455.95C187.399 3448.02 181.406 3446.13 176.118 3451.79Z" fill="white" fill-opacity="0.04"/>
<path d="M71.2504 3454.95C68.327 3459.61 75.2702 3465.94 80.3862 3463.28C82.5788 3461.94 84.406 3459.61 84.406 3457.95C84.406 3453.62 73.8085 3451.29 71.2504 3454.95Z" fill="white" fill-opacity="0.04"/>
<path d="M146.005 3454.59C142.9 3459.44 143.935 3460.48 152.907 3462.22C157.393 3462.91 159.808 3461.18 159.808 3458.06C159.808 3451.81 149.456 3449.04 146.005 3454.59Z" fill="white" fill-opacity="0.04"/>
<path d="M243.507 3461.7C242.403 3463.93 242.771 3467.28 244.979 3469.51C249.762 3474.35 256.754 3470.26 256.754 3462.82C256.754 3456.86 247.187 3455.75 243.507 3461.7Z" fill="white" fill-opacity="0.04"/>
<path d="M101.332 3473.61C101.332 3476.81 103.256 3479.3 105.179 3479.3C107.487 3479.3 109.026 3477.88 109.026 3476.1C109.026 3473.97 107.487 3471.48 105.179 3470.42C103.256 3469.35 101.332 3470.77 101.332 3473.61Z" fill="white" fill-opacity="0.04"/>
<path d="M199.372 3478.48C196.313 3482.03 200.051 3486.99 205.829 3486.99C208.549 3486.99 210.588 3484.51 210.588 3481.67C210.588 3476.36 203.45 3474.23 199.372 3478.48Z" fill="white" fill-opacity="0.04"/>
<path d="M130.703 3483.33C131.393 3485.53 133.462 3486.99 135.187 3486.99C136.911 3486.99 138.981 3485.53 139.67 3483.33C140.36 3481.13 138.291 3479.3 135.187 3479.3C132.083 3479.3 130.013 3481.13 130.703 3483.33Z" fill="white" fill-opacity="0.04"/>
<path d="M160.157 3482.9C159.095 3485.14 160.512 3487.76 163.7 3488.89C170.43 3491.88 174.326 3488.89 170.784 3483.27C167.95 3478.04 162.991 3478.04 160.157 3482.9Z" fill="white" fill-opacity="0.04"/>
<g filter="url(#filter0_f_4170_6485)">
<circle cx="1381.5" cy="1590.5" r="147.5" fill="url(#paint0_linear_4170_6485)" fill-opacity="0.52"/>
</g>
<g filter="url(#filter1_f_4170_6485)">
<circle cx="136.5" cy="2551.5" r="147.5" fill="url(#paint1_linear_4170_6485)" fill-opacity="0.52"/>
</g>
<g filter="url(#filter2_f_4170_6485)">
<circle cx="1317.5" cy="3604.5" r="147.5" fill="url(#paint2_linear_4170_6485)" fill-opacity="0.52"/>
</g>
<g filter="url(#filter3_f_4170_6485)">
<circle cx="201.5" cy="4802.5" r="147.5" fill="url(#paint3_linear_4170_6485)" fill-opacity="0.52"/>
</g>
<path d="M10.163 709.374C8.67386 711.643 9.04616 715.424 11.2799 717.693C13.5137 719.962 15.7474 719.962 17.6089 716.937C19.0981 714.668 18.7258 710.886 16.492 708.617C14.2583 706.348 12.0245 706.348 10.163 709.374Z" fill="white" fill-opacity="0.04"/>
<path d="M45.3641 709.996C43.9867 712.005 44.6754 715.018 47.0859 716.358C52.9398 719.706 61.5485 716.692 59.8268 711.67C58.105 706.313 48.1189 705.309 45.3641 709.996Z" fill="white" fill-opacity="0.04"/>
<path d="M85.3403 719.097C81.1451 723.38 83.0814 727.004 89.8581 727.004C93.4079 727.004 95.9895 725.357 95.3441 723.051C93.7306 718.438 88.2446 716.132 85.3403 719.097Z" fill="white" fill-opacity="0.04"/>
<path d="M-10.1538 733.65C-12.8071 738.492 -5.8422 748.549 0.127697 748.549C6.42926 748.549 6.0976 735.14 -0.535625 732.16C-7.50051 729.18 -7.83217 729.18 -10.1538 733.65Z" fill="white" fill-opacity="0.04"/>
<path d="M28.4575 737.273C25.3024 742.655 33.0149 751.625 41.0781 751.625C45.2849 751.625 47.7389 749.113 47.7389 744.449C47.7389 740.502 46.3367 737.273 44.5838 737.273C42.8309 737.273 38.9747 736.197 36.1701 735.12C33.3655 734.044 29.8598 735.12 28.4575 737.273Z" fill="white" fill-opacity="0.04"/>
<path d="M115.715 742.03C117.26 747.838 124.371 748.999 124.68 743.192C124.68 740.868 122.516 738.545 119.424 738.158C116.333 736.997 114.787 738.545 115.715 742.03Z" fill="white" fill-opacity="0.04"/>
<path d="M80.352 754.376C81.6216 762.055 90.8264 763.517 90.8264 755.473C90.8264 752.548 88.2871 749.623 85.1131 748.891C80.6694 747.794 79.3998 749.257 80.352 754.376Z" fill="white" fill-opacity="0.04"/>
<path d="M148.708 760.646C143.988 764.929 146.167 768.552 153.791 768.552C157.784 768.552 160.688 766.905 159.962 764.599C158.147 759.987 151.975 757.681 148.708 760.646Z" fill="white" fill-opacity="0.04"/>
<path d="M-3.49384 767.646C-13.7208 778.407 -3.49384 797.499 9.80114 792.292C17.3009 789.168 17.3009 766.952 9.80114 764.175C2.6423 761.398 2.9832 761.398 -3.49384 767.646Z" fill="white" fill-opacity="0.04"/>
<path d="M41.3357 777.555C37.4061 787.381 42.7646 794.399 53.1245 792.995C60.9837 792.293 63.1271 790.188 63.1271 783.17C63.1271 776.152 60.9837 774.047 53.1245 773.345C46.6942 772.643 42.7646 774.047 41.3357 777.555Z" fill="white" fill-opacity="0.04"/>
<path d="M112.708 776.044C111.682 777.656 113.05 780.881 116.129 783.137C120.576 786.362 121.944 786.362 124.681 782.493C126.391 779.913 127.759 777.012 127.759 775.4C127.759 772.175 114.76 772.498 112.708 776.044Z" fill="white" fill-opacity="0.04"/>
<path d="M157.308 798.256C159.111 803.096 167.407 804.064 167.768 799.224C167.768 797.288 165.243 795.353 161.636 795.03C158.029 794.062 156.226 795.353 157.308 798.256Z" fill="white" fill-opacity="0.04"/>
<path d="M129.637 808.211C130.32 813.457 133.052 816.256 137.493 816.256C147.74 816.256 146.715 802.614 136.468 801.215C129.637 800.166 128.612 801.215 129.637 808.211Z" fill="white" fill-opacity="0.04"/>
<path d="M-28.647 813.63C-44.1451 824.637 -36.2238 853.188 -17.9705 853.188C-1.78361 853.188 11.9925 825.669 0.282807 816.038C-7.98285 809.158 -20.7257 808.126 -28.647 813.63Z" fill="white" fill-opacity="0.04"/>
<path d="M81.9818 813.375C79.5845 819.388 88.8312 833.184 94.9956 833.184C100.475 833.184 105.612 817.973 101.845 812.314C98.7628 806.654 84.0366 807.715 81.9818 813.375Z" fill="white" fill-opacity="0.04"/>
<path d="M30.3137 821.85C24.1794 831.615 24.9011 840.683 32.4787 847.31C46.1905 859.517 69.284 851.495 69.284 834.405C69.284 816.967 39.6954 807.201 30.3137 821.85Z" fill="white" fill-opacity="0.04"/>
<path d="M135.828 843.586C136.55 847.792 139.436 851.648 142.322 851.648C150.26 851.648 149.177 837.977 141.24 836.575C135.828 835.523 134.746 836.925 135.828 843.586Z" fill="white" fill-opacity="0.04"/>
<path d="M165.634 837.807C160.914 842.803 163.092 847.031 170.716 847.031C174.71 847.031 177.614 845.109 176.888 842.419C175.073 837.038 168.901 834.348 165.634 837.807Z" fill="white" fill-opacity="0.04"/>
<path d="M-1.86861 862.85C-21.8519 873.379 -10.9838 899.352 13.2065 899.352C28.6322 899.352 33.8909 894.087 33.8909 879.346C33.8909 870.22 31.7874 866.711 23.3734 862.499C11.103 856.181 10.0512 856.181 -1.86861 862.85Z" fill="white" fill-opacity="0.04"/>
<path d="M107.716 859.693C105.25 860.743 103.137 865.295 103.137 870.197C103.137 876.5 104.898 878.601 109.125 877.551C115.817 876.15 119.691 865.295 114.76 860.743C113.351 859.343 109.829 858.993 107.716 859.693Z" fill="white" fill-opacity="0.04"/>
<path d="M58.5994 871.842C45.7597 885.964 49.2299 900.449 65.8868 904.794C73.1742 906.605 77.3384 905.157 83.9318 898.276C96.4245 885.24 95.0364 876.187 79.7676 867.496C69.357 862.065 67.2749 862.427 58.5994 871.842Z" fill="white" fill-opacity="0.04"/>
<path d="M134.84 880.024C131.225 884.443 131.586 885.915 135.925 887.756C143.156 890.334 149.302 886.652 149.302 879.656C149.302 873.029 140.625 873.029 134.84 880.024Z" fill="white" fill-opacity="0.04"/>
<path d="M164.798 882.425C167.046 889.735 177 890.889 177 883.964C177 880.116 174.11 877.808 170.257 877.808C166.404 877.808 164.156 879.732 164.798 882.425Z" fill="white" fill-opacity="0.04"/>
<path d="M97.0434 904.437C90.8229 912.355 94.2788 922.434 103.61 922.434C114.668 922.434 120.543 912.355 114.668 904.797C108.793 897.598 102.573 897.598 97.0434 904.437Z" fill="white" fill-opacity="0.04"/>
<path d="M-23.2374 910.752C-30.7201 915.176 -31.4004 931.85 -23.9177 938.997C-13.0337 949.887 4.65271 941.719 4.65271 926.065C4.65271 913.134 -12.0133 904.286 -23.2374 910.752Z" fill="white" fill-opacity="0.04"/>
<path d="M34.2006 912.202C18.4542 922.858 27.7589 948.64 46.3682 945.203C60.6831 942.796 66.7669 922.171 56.3886 912.202C49.5891 905.327 44.221 905.327 34.2006 912.202Z" fill="white" fill-opacity="0.04"/>
<path d="M160.926 913.7C157.435 919.227 165.465 925.405 170.352 920.853C174.542 916.951 171.749 910.123 166.512 910.123C164.766 910.123 162.322 911.749 160.926 913.7Z" fill="white" fill-opacity="0.04"/>
<path d="M128.452 918.431C125.089 922.866 125.425 924.344 130.134 926.192C137.869 929.518 143.587 922.496 137.533 916.953C133.834 913.627 131.816 913.996 128.452 918.431Z" fill="white" fill-opacity="0.04"/>
<path d="M74.6562 948.844C71.1131 955.697 71.4674 957.861 77.1364 961.828C85.9942 968.32 96.6236 958.943 90.6003 949.565C84.9313 940.188 79.6166 940.188 74.6562 948.844Z" fill="white" fill-opacity="0.04"/>
<path d="M111.498 953.339C108.543 960.074 115.93 966.1 123.687 963.264C130.705 960.783 128.119 950.149 119.993 948.731C116.669 948.022 112.606 950.149 111.498 953.339Z" fill="white" fill-opacity="0.04"/>
<path d="M151.749 950.804C146.912 955.389 149.676 962.443 156.24 962.443C160.041 962.443 163.15 961.033 163.15 959.269C163.15 954.684 154.168 947.982 151.749 950.804Z" fill="white" fill-opacity="0.04"/>
<path d="M8.9371 967.744C3.26209 974.963 6.80897 983.986 15.6762 983.986C23.4793 983.986 31.9918 971.714 28.4449 965.939C25.2527 960.525 13.9027 961.608 8.9371 967.744Z" fill="white" fill-opacity="0.04"/>
<path d="M45.4341 971.045C43.0297 977.701 46.4645 983.986 52.6471 983.986C58.1427 983.986 65.6992 971.415 62.2645 967.718C58.1427 963.651 47.1515 965.499 45.4341 971.045Z" fill="white" fill-opacity="0.04"/>
<path d="M91.693 979.833C89.0773 984.643 92.6739 990.141 98.5592 990.141C101.175 990.141 103.137 987.048 103.137 983.269C103.137 976.053 95.2896 973.648 91.693 979.833Z" fill="white" fill-opacity="0.04"/>
<path d="M124.802 987.943C127.331 994.208 138.529 995.198 138.529 989.262C138.529 985.964 135.278 983.986 130.943 983.986C126.608 983.986 124.08 985.635 124.802 987.943Z" fill="white" fill-opacity="0.04"/>
<path d="M62.406 995.537C59.8641 1002.26 63.4953 1008.61 70.0315 1008.61C76.5678 1008.61 79.4727 999.271 74.389 994.043C68.9422 988.441 64.5847 988.814 62.406 995.537Z" fill="white" fill-opacity="0.04"/>
<path d="M27.1182 1008.8C20.4202 1015.98 22.1828 1019.38 32.0537 1019.38C38.3992 1019.38 40.8669 1017.49 39.8093 1012.96C38.3992 1005.02 32.4062 1003.14 27.1182 1008.8Z" fill="white" fill-opacity="0.04"/>
<path d="M-2.99452 1011.6C-6.1001 1016.45 -5.06491 1017.49 3.90676 1019.23C8.3926 1019.92 10.808 1018.19 10.808 1015.06C10.808 1008.82 0.456122 1006.04 -2.99452 1011.6Z" fill="white" fill-opacity="0.04"/>
<path d="M94.5071 1018.71C93.4032 1020.94 93.7712 1024.29 95.9789 1026.52C100.762 1031.35 107.754 1027.26 107.754 1019.82C107.754 1013.87 98.1867 1012.76 94.5071 1018.71Z" fill="white" fill-opacity="0.04"/>
<path d="M50.3735 1035.49C47.3146 1039.04 51.0533 1044 56.8314 1044C59.5505 1044 61.5898 1041.52 61.5898 1038.68C61.5898 1033.36 54.4522 1031.24 50.3735 1035.49Z" fill="white" fill-opacity="0.04"/>
<path d="M11.1575 1039.91C10.0948 1042.15 11.5117 1044.77 14.6996 1045.9C21.4296 1048.89 25.3259 1045.9 21.7838 1040.28C18.9501 1035.04 13.9912 1035.04 11.1575 1039.91Z" fill="white" fill-opacity="0.04"/>
<path d="M1394.66 2184.5C1391.6 2188.04 1395.34 2193 1401.12 2193C1403.84 2193 1405.88 2190.52 1405.88 2187.69C1405.88 2182.37 1398.74 2180.24 1394.66 2184.5Z" fill="white" fill-opacity="0.04"/>
<path d="M1359.71 2198.39C1359.71 2202.4 1362.34 2204.4 1366.47 2203.6C1374.36 2202 1373.61 2194.78 1365.72 2193.18C1361.97 2192.38 1359.71 2194.38 1359.71 2198.39Z" fill="white" fill-opacity="0.04"/>
<path d="M1421.85 2199.65C1419.19 2204.49 1426.16 2214.55 1432.13 2214.55C1438.43 2214.55 1438.1 2201.14 1431.46 2198.16C1424.5 2195.18 1424.17 2195.18 1421.85 2199.65Z" fill="white" fill-opacity="0.04"/>
<path d="M1392.44 2215.77C1389.97 2218.53 1389.97 2221.98 1391.73 2225.08C1394.55 2229.56 1395.61 2229.56 1400.54 2224.73C1405.48 2220.25 1405.48 2218.87 1401.25 2215.43C1397.37 2211.98 1395.26 2212.33 1392.44 2215.77Z" fill="white" fill-opacity="0.04"/>
<path d="M1329.25 2219.19C1329.58 2222.8 1331.83 2225.32 1333.45 2225.32C1338.29 2224.96 1337.32 2216.66 1332.48 2214.86C1329.58 2213.78 1328.29 2215.58 1329.25 2219.19Z" fill="white" fill-opacity="0.04"/>
<path d="M1359.71 2230.51C1359.71 2233.44 1361.41 2235.06 1363.78 2234.41C1369.87 2232.46 1370.89 2225.32 1365.13 2225.32C1362.08 2225.32 1359.71 2227.59 1359.71 2230.51Z" fill="white" fill-opacity="0.04"/>
<path d="M1428.51 2233.65C1418.28 2244.41 1428.51 2263.5 1441.8 2258.29C1449.3 2255.17 1449.3 2232.95 1441.8 2230.17C1434.64 2227.4 1434.98 2227.4 1428.51 2233.65Z" fill="white" fill-opacity="0.04"/>
<path d="M1332.83 2246.72C1329.42 2255.58 1337.39 2262.96 1343.46 2257.05C1347.26 2253.36 1346.5 2251.15 1341.56 2246.35C1335.87 2240.82 1335.11 2240.82 1332.83 2246.72Z" fill="white" fill-opacity="0.04"/>
<path d="M1376.94 2245.72C1364.36 2252.74 1371.55 2269.95 1386.64 2269.95C1402.1 2269.95 1408.93 2252.39 1395.99 2245.36C1387.36 2241.15 1384.85 2241.15 1376.94 2245.72Z" fill="white" fill-opacity="0.04"/>
<path d="M1296.62 2250.71C1296.62 2253.58 1299.13 2256.1 1302.01 2256.1C1304.88 2256.1 1307.39 2253.58 1307.39 2250.71C1307.39 2247.84 1304.88 2245.32 1302.01 2245.32C1299.13 2245.32 1296.62 2247.84 1296.62 2250.71Z" fill="white" fill-opacity="0.04"/>
<path d="M1316.32 2272.21C1312.88 2275.75 1317.08 2280.72 1323.58 2280.72C1326.64 2280.72 1328.94 2278.24 1328.94 2275.4C1328.94 2270.08 1320.91 2267.95 1316.32 2272.21Z" fill="white" fill-opacity="0.04"/>
<path d="M1282.77 2281.46C1282.77 2289.35 1290.24 2288.36 1291.86 2280.15C1292.51 2276.86 1290.89 2274.56 1287.97 2274.56C1284.72 2274.56 1282.77 2277.52 1282.77 2281.46Z" fill="white" fill-opacity="0.04"/>
<path d="M1403.35 2279.63C1387.85 2290.64 1395.78 2319.19 1414.03 2319.19C1430.22 2319.19 1443.99 2291.67 1432.28 2282.04C1424.02 2275.16 1411.27 2274.13 1403.35 2279.63Z" fill="white" fill-opacity="0.04"/>
<path d="M1347.2 2283.08C1340.52 2290.29 1341.58 2302.18 1349.31 2307.23C1356.69 2311.92 1373.56 2301.82 1373.56 2292.45C1373.56 2278.04 1357.74 2272.63 1347.2 2283.08Z" fill="white" fill-opacity="0.04"/>
<path d="M1307.39 2303.8C1307.39 2307.24 1309.69 2308.95 1313.31 2308.27C1320.21 2306.89 1319.55 2300.71 1312.65 2299.33C1309.36 2298.65 1307.39 2300.36 1307.39 2303.8Z" fill="white" fill-opacity="0.04"/>
<path d="M1274.41 2312.35C1271.79 2317.69 1275.39 2323.8 1281.27 2323.8C1283.89 2323.8 1285.85 2320.37 1285.85 2316.17C1285.85 2308.15 1278 2305.48 1274.41 2312.35Z" fill="white" fill-opacity="0.04"/>
<path d="M1430.13 2328.85C1410.15 2339.38 1421.02 2365.35 1445.21 2365.35C1460.63 2365.35 1465.89 2360.09 1465.89 2345.35C1465.89 2336.22 1463.79 2332.71 1455.37 2328.5C1443.1 2322.18 1442.05 2322.18 1430.13 2328.85Z" fill="white" fill-opacity="0.04"/>
<path d="M1371.54 2331.1C1369.13 2333.51 1367.41 2339.7 1367.41 2344.86C1367.41 2357.59 1380.51 2364.48 1393.27 2358.63C1404.99 2353.12 1407.4 2345.9 1400.51 2335.58C1394.3 2326.29 1378.78 2323.88 1371.54 2331.1Z" fill="white" fill-opacity="0.04"/>
<path d="M1305.08 2335.28C1304.01 2338.51 1304.01 2342.09 1305.44 2343.16C1308.32 2346.38 1318.76 2336.72 1316.24 2333.13C1313.36 2328.12 1307.6 2329.2 1305.08 2335.28Z" fill="white" fill-opacity="0.04"/>
<path d="M1334.37 2335.69C1329.41 2348.98 1348.19 2357.47 1357.05 2346.39C1360.6 2341.96 1360.6 2339.75 1357.05 2335.32C1351.03 2327.93 1337.21 2328.3 1334.37 2335.69Z" fill="white" fill-opacity="0.04"/>
<path d="M1274.45 2350.7C1273.05 2351.75 1272 2354.91 1272 2357.71C1272 2362.96 1281.09 2364.01 1283.88 2359.11C1286.33 2355.26 1277.59 2347.55 1274.45 2350.7Z" fill="white" fill-opacity="0.04"/>
<path d="M1309.74 2365.05C1308.4 2367.42 1308.73 2370.47 1310.74 2372.5C1315.43 2377.24 1325.81 2373.18 1324.14 2367.42C1322.13 2362 1312.75 2360.31 1309.74 2365.05Z" fill="white" fill-opacity="0.04"/>
<path d="M1343.22 2377.99C1341 2383.01 1347.68 2393.05 1353.25 2393.05C1354.73 2393.05 1358.82 2390.71 1362.16 2387.69C1366.61 2383.68 1366.99 2381.33 1363.64 2377.65C1358.08 2371.29 1345.82 2371.63 1343.22 2377.99Z" fill="white" fill-opacity="0.04"/>
<path d="M1408.76 2376.75C1401.28 2381.18 1400.6 2397.85 1408.08 2405C1418.97 2415.89 1436.65 2407.72 1436.65 2392.07C1436.65 2379.13 1419.99 2370.29 1408.76 2376.75Z" fill="white" fill-opacity="0.04"/>
<path d="M1279.69 2392.09C1279.69 2395.01 1281.99 2396.63 1285.28 2395.98C1293.49 2394.36 1294.48 2386.89 1286.59 2386.89C1282.65 2386.89 1279.69 2388.84 1279.69 2392.09Z" fill="white" fill-opacity="0.04"/>
<path d="M1317.83 2395.31C1314.5 2399.02 1314.13 2401.99 1317.09 2404.97C1321.54 2409.42 1328.94 2405.71 1328.94 2398.65C1328.94 2390.85 1323.02 2389 1317.83 2395.31Z" fill="white" fill-opacity="0.04"/>
<path d="M1371.59 2408.98C1368.29 2417.35 1372.69 2425.37 1380.74 2425.37C1390.63 2425.37 1393.93 2414.07 1386.24 2408.25C1377.81 2402.06 1374.15 2402.42 1371.59 2408.98Z" fill="white" fill-opacity="0.04"/>
<path d="M1335.6 2419.75C1330.44 2426.15 1335.6 2433.27 1344.87 2431.14C1353.47 2429.36 1354.5 2422.24 1346.94 2417.97C1341.78 2415.13 1339.03 2415.48 1335.6 2419.75Z" fill="white" fill-opacity="0.04"/>
<path d="M1291.37 2421.49C1288.64 2426.34 1292.39 2431.52 1298.53 2431.52C1301.6 2431.52 1303.31 2429.26 1302.63 2426.02C1301.26 2419.55 1294.44 2416.96 1291.37 2421.49Z" fill="white" fill-opacity="0.04"/>
<path d="M1405.23 2427.14C1400.74 2432.11 1402.81 2445.61 1408.68 2447.74C1417.31 2451.3 1426.28 2440.64 1421.45 2432.82C1417.31 2426.07 1409.02 2423.23 1405.23 2427.14Z" fill="white" fill-opacity="0.04"/>
<path d="M1440.94 2433.74C1435.26 2440.96 1438.81 2449.99 1447.68 2449.99C1455.48 2449.99 1463.99 2437.71 1460.44 2431.94C1457.25 2426.53 1445.9 2427.61 1440.94 2433.74Z" fill="white" fill-opacity="0.04"/>
<path d="M1358.98 2442.34C1357.64 2445 1357.97 2448.43 1359.98 2450.72C1364.67 2456.06 1375.06 2451.48 1373.38 2445C1371.37 2438.91 1361.99 2437 1358.98 2442.34Z" fill="white" fill-opacity="0.04"/>
<path d="M1308.53 2446.23C1307.08 2448.45 1307.08 2451.04 1308.17 2452.15C1311.07 2455.11 1321.24 2450.3 1321.24 2445.86C1321.24 2441.04 1311.44 2441.04 1308.53 2446.23Z" fill="white" fill-opacity="0.04"/>
<path d="M1331.2 2458.77C1326.94 2462.85 1329.07 2469.99 1334.39 2469.99C1337.23 2469.99 1339.71 2467.95 1339.71 2465.23C1339.71 2459.45 1334.74 2455.72 1331.2 2458.77Z" fill="white" fill-opacity="0.04"/>
<path d="M1392.69 2465.5C1389.74 2472.24 1397.13 2478.26 1404.88 2475.43C1411.9 2472.95 1409.31 2462.31 1401.19 2460.89C1397.86 2460.19 1393.8 2462.31 1392.69 2465.5Z" fill="white" fill-opacity="0.04"/>
<path d="M1354.25 2477.96C1351.33 2482.62 1358.27 2488.95 1363.39 2486.29C1365.58 2484.95 1367.41 2482.62 1367.41 2480.96C1367.41 2476.63 1356.81 2474.3 1354.25 2477.96Z" fill="white" fill-opacity="0.04"/>
<path d="M1429.01 2477.6C1425.9 2482.45 1426.94 2483.49 1435.91 2485.23C1440.39 2485.92 1442.81 2484.19 1442.81 2481.06C1442.81 2474.82 1432.46 2472.04 1429.01 2477.6Z" fill="white" fill-opacity="0.04"/>
<path d="M1384.33 2496.62C1384.33 2499.82 1386.26 2502.31 1388.18 2502.31C1390.49 2502.31 1392.03 2500.89 1392.03 2499.11C1392.03 2496.98 1390.49 2494.49 1388.18 2493.43C1386.26 2492.36 1384.33 2493.78 1384.33 2496.62Z" fill="white" fill-opacity="0.04"/>
<path d="M1413.7 2506.34C1414.39 2508.53 1416.46 2510 1418.19 2510C1419.91 2510 1421.98 2508.53 1422.67 2506.34C1423.36 2504.14 1421.29 2502.31 1418.19 2502.31C1415.08 2502.31 1413.01 2504.14 1413.7 2506.34Z" fill="white" fill-opacity="0.04"/>
<path d="M89.3779 5140.37C87.8887 5142.64 88.261 5146.42 90.4948 5148.69C92.7285 5150.96 94.9623 5150.96 96.8237 5147.93C98.3129 5145.67 97.9406 5141.88 95.7069 5139.62C93.4731 5137.35 91.2393 5137.35 89.3779 5140.37Z" fill="white" fill-opacity="0.04"/>
<path d="M124.579 5141C123.202 5143.01 123.89 5146.02 126.301 5147.36C132.155 5150.71 140.763 5147.69 139.042 5142.67C137.32 5137.31 127.334 5136.31 124.579 5141Z" fill="white" fill-opacity="0.04"/>
<path d="M41.8755 5149.5C38.8165 5153.04 42.5553 5158 48.3333 5158C51.0524 5158 53.0918 5155.52 53.0918 5152.69C53.0918 5147.37 45.9541 5145.24 41.8755 5149.5Z" fill="white" fill-opacity="0.04"/>
<path d="M164.555 5150.1C160.36 5154.38 162.296 5158 169.073 5158C172.623 5158 175.204 5156.36 174.559 5154.05C172.945 5149.44 167.459 5147.13 164.555 5150.1Z" fill="white" fill-opacity="0.04"/>
<path d="M6.92773 5163.39C6.92773 5167.4 9.55612 5169.4 13.6865 5168.6C21.5716 5167 20.8207 5159.78 12.9355 5158.18C9.18064 5157.37 6.92773 5159.38 6.92773 5163.39Z" fill="white" fill-opacity="0.04"/>
<path d="M69.061 5164.65C66.4078 5169.49 73.3726 5179.55 79.3425 5179.55C85.6441 5179.55 85.3124 5166.14 78.6792 5163.16C71.7143 5160.18 71.3827 5160.18 69.061 5164.65Z" fill="white" fill-opacity="0.04"/>
<path d="M107.672 5168.27C104.517 5173.66 112.23 5182.62 120.293 5182.62C124.5 5182.62 126.954 5180.11 126.954 5175.45C126.954 5171.5 125.551 5168.27 123.799 5168.27C122.046 5168.27 118.189 5167.2 115.385 5166.12C112.58 5165.04 109.075 5166.12 107.672 5168.27Z" fill="white" fill-opacity="0.04"/>
<path d="M194.929 5173.03C196.475 5178.84 203.586 5180 203.895 5174.19C203.895 5171.87 201.731 5169.54 198.639 5169.16C195.548 5167.99 194.002 5169.54 194.929 5173.03Z" fill="white" fill-opacity="0.04"/>
<path d="M39.6526 5180.77C37.1855 5183.53 37.1855 5186.98 38.9477 5190.08C41.7672 5194.56 42.8245 5194.56 47.7587 5189.74C52.6928 5185.25 52.6928 5183.88 48.4635 5180.43C44.5867 5176.98 42.4721 5177.33 39.6526 5180.77Z" fill="white" fill-opacity="0.04"/>
<path d="M159.567 5185.38C160.836 5193.05 170.041 5194.52 170.041 5186.47C170.041 5183.55 167.502 5180.62 164.328 5179.89C159.884 5178.79 158.615 5180.26 159.567 5185.38Z" fill="white" fill-opacity="0.04"/>
<path d="M227.921 5191.65C223.201 5195.93 225.38 5199.55 233.003 5199.55C236.997 5199.55 239.901 5197.91 239.175 5195.6C237.36 5190.99 231.188 5188.68 227.921 5191.65Z" fill="white" fill-opacity="0.04"/>
<path d="M75.721 5198.64C65.4941 5209.4 75.721 5228.5 89.016 5223.29C96.5157 5220.17 96.5157 5197.95 89.016 5195.17C81.8571 5192.4 82.198 5192.4 75.721 5198.64Z" fill="white" fill-opacity="0.04"/>
<path d="M120.552 5208.55C116.623 5218.38 121.981 5225.4 132.341 5223.99C140.2 5223.29 142.344 5221.19 142.344 5214.17C142.344 5207.15 140.2 5205.04 132.341 5204.34C125.911 5203.64 121.981 5205.04 120.552 5208.55Z" fill="white" fill-opacity="0.04"/>
<path d="M191.923 5207.04C190.897 5208.65 192.265 5211.88 195.344 5214.13C199.791 5217.36 201.159 5217.36 203.895 5213.49C205.606 5210.91 206.974 5208.01 206.974 5206.4C206.974 5203.17 193.975 5203.49 191.923 5207.04Z" fill="white" fill-opacity="0.04"/>
<path d="M24.1539 5210.72C11.5734 5217.74 18.7623 5234.95 33.8589 5234.95C49.315 5234.95 56.1445 5217.39 43.2045 5210.36C34.5778 5206.15 32.0617 5206.15 24.1539 5210.72Z" fill="white" fill-opacity="0.04"/>
<path d="M236.523 5229.26C238.326 5234.1 246.622 5235.06 246.983 5230.22C246.983 5228.29 244.458 5226.35 240.851 5226.03C237.244 5225.06 235.441 5226.35 236.523 5229.26Z" fill="white" fill-opacity="0.04"/>
<path d="M208.851 5239.21C209.535 5244.46 212.267 5247.25 216.708 5247.25C226.955 5247.25 225.93 5233.61 215.683 5232.21C208.851 5231.16 207.827 5232.21 208.851 5239.21Z" fill="white" fill-opacity="0.04"/>
<path d="M50.5679 5244.63C35.0698 5255.64 42.991 5284.19 61.2443 5284.19C77.4312 5284.19 91.2073 5256.67 79.4977 5247.04C71.232 5240.16 58.4891 5239.13 50.5679 5244.63Z" fill="white" fill-opacity="0.04"/>
<path d="M161.197 5244.37C158.799 5250.38 168.046 5264.18 174.21 5264.18C179.69 5264.18 184.827 5248.97 181.06 5243.31C177.978 5237.65 163.251 5238.71 161.197 5244.37Z" fill="white" fill-opacity="0.04"/>
<path d="M-5.5854 5248.08C-12.2637 5255.29 -11.2092 5267.18 -3.47647 5272.23C3.9048 5276.91 20.7763 5266.82 20.7763 5257.45C20.7763 5243.03 4.95926 5237.63 -5.5854 5248.08Z" fill="white" fill-opacity="0.04"/>
<path d="M109.527 5252.85C103.392 5262.62 104.114 5271.68 111.692 5278.31C125.403 5290.52 148.497 5282.5 148.497 5265.41C148.497 5247.97 118.908 5238.2 109.527 5252.85Z" fill="white" fill-opacity="0.04"/>
<path d="M215.045 5274.59C215.767 5278.79 218.653 5282.65 221.539 5282.65C229.476 5282.65 228.394 5268.98 220.457 5267.57C215.045 5266.52 213.963 5267.93 215.045 5274.59Z" fill="white" fill-opacity="0.04"/>
<path d="M244.849 5268.81C240.129 5273.8 242.307 5278.03 249.931 5278.03C253.925 5278.03 256.829 5276.11 256.103 5273.42C254.288 5268.04 248.116 5265.35 244.849 5268.81Z" fill="white" fill-opacity="0.04"/>
<path d="M77.3462 5293.85C57.3629 5304.38 68.231 5330.35 92.4213 5330.35C107.847 5330.35 113.106 5325.09 113.106 5310.35C113.106 5301.22 111.002 5297.71 102.588 5293.5C90.3178 5287.18 89.2661 5287.18 77.3462 5293.85Z" fill="white" fill-opacity="0.04"/>
<path d="M186.93 5290.69C184.465 5291.74 182.352 5296.3 182.352 5301.2C182.352 5307.5 184.113 5309.6 188.339 5308.55C195.032 5307.15 198.906 5296.3 193.975 5291.74C192.566 5290.34 189.044 5289.99 186.93 5290.69Z" fill="white" fill-opacity="0.04"/>
<path d="M18.7586 5296.1C16.3451 5298.51 14.6211 5304.7 14.6211 5309.86C14.6211 5322.59 27.7233 5329.48 40.4808 5323.63C52.2039 5318.12 54.6175 5310.9 47.7215 5300.58C41.5152 5291.29 25.9994 5288.88 18.7586 5296.1Z" fill="white" fill-opacity="0.04"/>
<path d="M137.814 5302.84C124.975 5316.96 128.445 5331.45 145.102 5335.79C152.389 5337.61 156.553 5336.16 163.147 5329.28C175.639 5316.24 174.251 5307.19 158.982 5298.5C148.572 5293.06 146.49 5293.43 137.814 5302.84Z" fill="white" fill-opacity="0.04"/>
<path d="M214.055 5311.02C210.439 5315.44 210.801 5316.91 215.14 5318.75C222.37 5321.33 228.517 5317.65 228.517 5310.65C228.517 5304.03 219.84 5304.03 214.055 5311.02Z" fill="white" fill-opacity="0.04"/>
<path d="M244.013 5313.42C246.261 5320.73 256.215 5321.89 256.215 5314.96C256.215 5311.11 253.325 5308.81 249.472 5308.81C245.619 5308.81 243.371 5310.73 244.013 5313.42Z" fill="white" fill-opacity="0.04"/>
<path d="M176.258 5335.44C170.038 5343.36 173.494 5353.43 182.824 5353.43C193.883 5353.43 199.758 5343.36 193.883 5335.8C188.008 5328.6 181.788 5328.6 176.258 5335.44Z" fill="white" fill-opacity="0.04"/>
<path d="M55.9774 5341.75C48.4947 5346.18 47.8144 5362.85 55.2972 5370C66.1811 5380.89 83.8676 5372.72 83.8676 5357.07C83.8676 5344.13 67.2015 5335.29 55.9774 5341.75Z" fill="white" fill-opacity="0.04"/>
<path d="M113.413 5343.2C97.6671 5353.86 106.972 5379.64 125.581 5376.2C139.896 5373.8 145.98 5353.17 135.602 5343.2C128.802 5336.33 123.434 5336.33 113.413 5343.2Z" fill="white" fill-opacity="0.04"/>
<path d="M240.143 5344.7C236.651 5350.23 244.681 5356.4 249.569 5351.85C253.759 5347.95 250.966 5341.12 245.729 5341.12C243.983 5341.12 241.539 5342.75 240.143 5344.7Z" fill="white" fill-opacity="0.04"/>
<path d="M207.667 5349.43C204.304 5353.87 204.64 5355.34 209.349 5357.19C217.084 5360.52 222.802 5353.5 216.748 5347.95C213.048 5344.63 211.03 5345 207.667 5349.43Z" fill="white" fill-opacity="0.04"/>
<path d="M18.8023 5373.97C15.5056 5382.35 19.9011 5390.36 27.9595 5390.36C37.8493 5390.36 41.146 5379.07 33.4539 5373.24C25.0292 5367.05 21.3663 5367.42 18.8023 5373.97Z" fill="white" fill-opacity="0.04"/>
<path d="M153.873 5379.85C150.33 5386.7 150.684 5388.86 156.353 5392.83C165.211 5399.32 175.84 5389.94 169.817 5380.57C164.148 5371.19 158.833 5371.19 153.873 5379.85Z" fill="white" fill-opacity="0.04"/>
<path d="M190.713 5384.34C187.758 5391.08 195.145 5397.1 202.902 5394.27C209.92 5391.78 207.334 5381.15 199.208 5379.73C195.884 5379.02 191.821 5381.15 190.713 5384.34Z" fill="white" fill-opacity="0.04"/>
<path d="M230.964 5381.81C226.127 5386.39 228.891 5393.45 235.455 5393.45C239.256 5393.45 242.365 5392.03 242.365 5390.27C242.365 5385.69 233.382 5378.98 230.964 5381.81Z" fill="white" fill-opacity="0.04"/>
<path d="M52.4406 5392.14C47.954 5397.11 50.0247 5410.61 55.8919 5412.75C64.52 5416.3 73.4933 5405.64 68.6615 5397.82C64.52 5391.07 56.237 5388.23 52.4406 5392.14Z" fill="white" fill-opacity="0.04"/>
<path d="M88.1519 5398.74C82.4769 5405.96 86.0238 5414.98 94.891 5414.98C102.694 5414.98 111.207 5402.71 107.66 5396.94C104.468 5391.52 93.1176 5392.61 88.1519 5398.74Z" fill="white" fill-opacity="0.04"/>
<path d="M124.649 5402.04C122.245 5408.7 125.679 5414.98 131.862 5414.98C137.358 5414.98 144.914 5402.41 141.479 5398.72C137.358 5394.65 126.366 5396.5 124.649 5402.04Z" fill="white" fill-opacity="0.04"/>
<path d="M6.19258 5407.34C4.85273 5410 5.1877 5413.43 7.19746 5415.72C11.8869 5421.05 22.2707 5416.48 20.5959 5410C18.5861 5403.91 9.20722 5402 6.19258 5407.34Z" fill="white" fill-opacity="0.04"/>
<path d="M170.908 5410.83C168.292 5415.64 171.889 5421.14 177.774 5421.14C180.39 5421.14 182.352 5418.05 182.352 5414.27C182.352 5407.05 174.504 5404.65 170.908 5410.83Z" fill="white" fill-opacity="0.04"/>
<path d="M204.017 5418.94C206.546 5425.21 217.744 5426.2 217.744 5420.26C217.744 5416.96 214.493 5414.99 210.158 5414.99C205.823 5414.99 203.295 5416.63 204.017 5418.94Z" fill="white" fill-opacity="0.04"/>
<path d="M141.621 5426.53C139.079 5433.26 142.71 5439.61 149.246 5439.61C155.783 5439.61 158.688 5430.27 153.604 5425.04C148.157 5419.44 143.8 5419.81 141.621 5426.53Z" fill="white" fill-opacity="0.04"/>
<path d="M39.908 5430.51C36.953 5437.24 44.3404 5443.27 52.0972 5440.43C59.1152 5437.95 56.5296 5427.31 48.4035 5425.9C45.0791 5425.19 41.0161 5427.31 39.908 5430.51Z" fill="white" fill-opacity="0.04"/>
<path d="M106.333 5439.8C99.635 5446.98 101.398 5450.38 111.269 5450.38C117.614 5450.38 120.082 5448.49 119.024 5443.96C117.614 5436.02 111.621 5434.14 106.333 5439.8Z" fill="white" fill-opacity="0.04"/>
<path d="M76.2203 5442.6C73.1147 5447.45 74.1499 5448.49 83.1216 5450.23C87.6074 5450.92 90.0229 5449.19 90.0229 5446.06C90.0229 5439.82 79.671 5437.04 76.2203 5442.6Z" fill="white" fill-opacity="0.04"/>
<path d="M173.722 5449.71C172.618 5451.94 172.986 5455.28 175.194 5457.52C179.977 5462.35 186.968 5458.26 186.968 5450.82C186.968 5444.87 177.402 5443.75 173.722 5449.71Z" fill="white" fill-opacity="0.04"/>
<path d="M31.5469 5461.62C31.5469 5464.82 33.4704 5467.3 35.3939 5467.3C37.7021 5467.3 39.2409 5465.88 39.2409 5464.11C39.2409 5461.98 37.7021 5459.49 35.3939 5458.43C33.4704 5457.36 31.5469 5458.78 31.5469 5461.62Z" fill="white" fill-opacity="0.04"/>
<path d="M129.586 5466.49C126.527 5470.04 130.266 5475 136.044 5475C138.763 5475 140.803 5472.52 140.803 5469.68C140.803 5464.36 133.665 5462.24 129.586 5466.49Z" fill="white" fill-opacity="0.04"/>
<path d="M60.9181 5471.34C61.6078 5473.53 63.6772 5475 65.4016 5475C67.126 5475 69.1953 5473.53 69.8851 5471.34C70.5749 5469.14 68.5056 5467.31 65.4016 5467.31C62.2976 5467.31 60.2283 5469.14 60.9181 5471.34Z" fill="white" fill-opacity="0.04"/>
<path d="M90.3723 5470.91C89.3097 5473.15 90.7265 5475.77 93.9144 5476.9C100.644 5479.89 104.541 5476.9 100.999 5471.28C98.165 5466.04 93.206 5466.04 90.3723 5470.91Z" fill="white" fill-opacity="0.04"/>
<path d="M1373.38 3671.37C1371.89 3673.64 1372.26 3677.42 1374.49 3679.69C1376.73 3681.96 1378.96 3681.96 1380.82 3678.94C1382.31 3676.67 1381.94 3672.89 1379.71 3670.62C1377.47 3668.35 1375.24 3668.35 1373.38 3671.37Z" fill="white" fill-opacity="0.04"/>
<path d="M1408.58 3672C1407.2 3674.01 1407.89 3677.02 1410.3 3678.36C1416.15 3681.71 1424.76 3678.69 1423.04 3673.67C1421.32 3668.31 1411.33 3667.31 1408.58 3672Z" fill="white" fill-opacity="0.04"/>
<path d="M1325.88 3680.5C1322.82 3684.04 1326.56 3689 1332.33 3689C1335.05 3689 1337.09 3686.52 1337.09 3683.69C1337.09 3678.37 1329.95 3676.24 1325.88 3680.5Z" fill="white" fill-opacity="0.04"/>
<path d="M1290.93 3694.39C1290.93 3698.4 1293.56 3700.4 1297.69 3699.6C1305.57 3698 1304.82 3690.78 1296.94 3689.18C1293.18 3688.38 1290.93 3690.38 1290.93 3694.39Z" fill="white" fill-opacity="0.04"/>
<path d="M1353.06 3695.65C1350.41 3700.49 1357.37 3710.55 1363.34 3710.55C1369.64 3710.55 1369.31 3697.14 1362.68 3694.16C1355.71 3691.18 1355.38 3691.18 1353.06 3695.65Z" fill="white" fill-opacity="0.04"/>
<path d="M1391.67 3699.27C1388.52 3704.66 1396.23 3713.62 1404.29 3713.62C1408.5 3713.62 1410.95 3711.11 1410.95 3706.45C1410.95 3702.5 1409.55 3699.27 1407.8 3699.27C1406.05 3699.27 1402.19 3698.2 1399.39 3697.12C1396.58 3696.04 1393.08 3697.12 1391.67 3699.27Z" fill="white" fill-opacity="0.04"/>
<path d="M1323.65 3711.77C1321.19 3714.53 1321.19 3717.98 1322.95 3721.08C1325.77 3725.56 1326.82 3725.56 1331.76 3720.73C1336.69 3716.25 1336.69 3714.87 1332.46 3711.43C1328.59 3707.98 1326.47 3708.33 1323.65 3711.77Z" fill="white" fill-opacity="0.04"/>
<path d="M1359.72 3729.65C1349.49 3740.41 1359.72 3759.5 1373.02 3754.29C1380.51 3751.17 1380.51 3728.95 1373.02 3726.17C1365.86 3723.4 1366.2 3723.4 1359.72 3729.65Z" fill="white" fill-opacity="0.04"/>
<path d="M1404.55 3739.56C1400.62 3749.38 1405.98 3756.4 1416.34 3754.99C1424.2 3754.29 1426.34 3752.19 1426.34 3745.17C1426.34 3738.15 1424.2 3736.05 1416.34 3735.34C1409.91 3734.64 1405.98 3736.05 1404.55 3739.56Z" fill="white" fill-opacity="0.04"/>
<path d="M1308.15 3741.72C1295.57 3748.74 1302.76 3765.95 1317.86 3765.95C1333.32 3765.95 1340.14 3748.39 1327.2 3741.36C1318.58 3737.15 1316.06 3737.15 1308.15 3741.72Z" fill="white" fill-opacity="0.04"/>
<path d="M1334.57 3775.63C1319.07 3786.64 1326.99 3815.19 1345.24 3815.19C1361.43 3815.19 1375.21 3787.67 1363.5 3778.04C1355.23 3771.16 1342.49 3770.13 1334.57 3775.63Z" fill="white" fill-opacity="0.04"/>
<path d="M1278.41 3779.08C1271.74 3786.29 1272.79 3798.18 1280.52 3803.23C1287.9 3807.92 1304.78 3797.82 1304.78 3788.45C1304.78 3774.04 1288.96 3768.63 1278.41 3779.08Z" fill="white" fill-opacity="0.04"/>
<path d="M1393.53 3783.85C1387.39 3793.62 1388.11 3802.68 1395.69 3809.31C1409.4 3821.52 1432.5 3813.5 1432.5 3796.41C1432.5 3778.97 1402.91 3769.2 1393.53 3783.85Z" fill="white" fill-opacity="0.04"/>
<path d="M1361.35 3824.85C1341.36 3835.38 1352.23 3861.35 1376.42 3861.35C1391.85 3861.35 1397.11 3856.09 1397.11 3841.35C1397.11 3832.22 1395 3828.71 1386.59 3824.5C1374.32 3818.18 1373.27 3818.18 1361.35 3824.85Z" fill="white" fill-opacity="0.04"/>
<path d="M1302.76 3827.1C1300.35 3829.51 1298.62 3835.7 1298.62 3840.86C1298.62 3853.59 1311.72 3860.48 1324.48 3854.63C1336.2 3849.12 1338.62 3841.9 1331.72 3831.58C1325.52 3822.29 1310 3819.88 1302.76 3827.1Z" fill="white" fill-opacity="0.04"/>
<path d="M1421.82 3833.84C1408.98 3847.96 1412.45 3862.45 1429.1 3866.79C1436.39 3868.6 1440.55 3867.15 1447.15 3860.27C1459.64 3847.24 1458.25 3838.19 1442.98 3829.49C1432.57 3824.06 1430.49 3824.42 1421.82 3833.84Z" fill="white" fill-opacity="0.04"/>
<path d="M1339.98 3872.75C1332.49 3877.18 1331.81 3893.85 1339.3 3901C1350.18 3911.89 1367.87 3903.72 1367.87 3888.07C1367.87 3875.13 1351.2 3866.29 1339.98 3872.75Z" fill="white" fill-opacity="0.04"/>
<path d="M1397.41 3874.2C1381.67 3884.86 1390.97 3910.64 1409.58 3907.2C1423.9 3904.8 1429.98 3884.17 1419.6 3874.2C1412.8 3867.33 1407.43 3867.33 1397.41 3874.2Z" fill="white" fill-opacity="0.04"/>
<path d="M1302.8 3904.98C1299.51 3913.35 1303.9 3921.37 1311.96 3921.37C1321.85 3921.37 1325.15 3910.07 1317.45 3904.25C1309.03 3898.05 1305.37 3898.42 1302.8 3904.98Z" fill="white" fill-opacity="0.04"/>
<path d="M1437.87 3910.84C1434.33 3917.7 1434.68 3919.86 1440.35 3923.83C1449.21 3930.32 1459.84 3920.94 1453.82 3911.57C1448.15 3902.19 1442.83 3902.19 1437.87 3910.84Z" fill="white" fill-opacity="0.04"/>
<path d="M1336.44 3923.14C1331.95 3928.11 1334.02 3941.61 1339.89 3943.74C1348.52 3947.3 1357.49 3936.64 1352.66 3928.82C1348.52 3922.07 1340.24 3919.23 1336.44 3923.14Z" fill="white" fill-opacity="0.04"/>
<path d="M1372.15 3929.74C1366.48 3936.96 1370.02 3945.99 1378.89 3945.99C1386.69 3945.99 1395.21 3933.71 1391.66 3927.94C1388.47 3922.53 1377.12 3923.61 1372.15 3929.74Z" fill="white" fill-opacity="0.04"/>
<path d="M1408.65 3933.05C1406.24 3939.7 1409.68 3945.99 1415.86 3945.99C1421.36 3945.99 1428.91 3933.42 1425.48 3929.72C1421.36 3925.65 1410.37 3927.5 1408.65 3933.05Z" fill="white" fill-opacity="0.04"/>
<path d="M1290.19 3938.34C1288.85 3941 1289.19 3944.43 1291.2 3946.72C1295.89 3952.06 1306.27 3947.48 1304.6 3941C1302.59 3934.91 1293.21 3933 1290.19 3938.34Z" fill="white" fill-opacity="0.04"/>
<path d="M1425.62 3957.54C1423.08 3964.26 1426.71 3970.61 1433.25 3970.61C1439.78 3970.61 1442.69 3961.27 1437.6 3956.04C1432.16 3950.44 1427.8 3950.81 1425.62 3957.54Z" fill="white" fill-opacity="0.04"/>
<path d="M1323.91 3961.5C1320.95 3968.24 1328.34 3974.26 1336.1 3971.43C1343.12 3968.95 1340.53 3958.31 1332.4 3956.89C1329.08 3956.19 1325.02 3958.31 1323.91 3961.5Z" fill="white" fill-opacity="0.04"/>
<path d="M1390.33 3970.8C1383.64 3977.98 1385.4 3981.38 1395.27 3981.38C1401.61 3981.38 1404.08 3979.49 1403.02 3974.96C1401.61 3967.02 1395.62 3965.14 1390.33 3970.8Z" fill="white" fill-opacity="0.04"/>
<path d="M1360.22 3973.6C1357.11 3978.45 1358.15 3979.49 1367.12 3981.23C1371.61 3981.92 1374.02 3980.19 1374.02 3977.06C1374.02 3970.82 1363.67 3968.04 1360.22 3973.6Z" fill="white" fill-opacity="0.04"/>
<path d="M1315.55 3992.62C1315.55 3995.82 1317.47 3998.31 1319.39 3998.31C1321.7 3998.31 1323.24 3996.89 1323.24 3995.11C1323.24 3992.98 1321.7 3990.49 1319.39 3989.43C1317.47 3988.36 1315.55 3989.78 1315.55 3992.62Z" fill="white" fill-opacity="0.04"/>
<path d="M1413.59 3997.49C1410.53 4001.04 1414.27 4006 1420.05 4006C1422.76 4006 1424.8 4003.52 1424.8 4000.68C1424.8 3995.36 1417.67 3993.24 1413.59 3997.49Z" fill="white" fill-opacity="0.04"/>
<path d="M1344.92 4002.34C1345.61 4004.53 1347.68 4006 1349.4 4006C1351.13 4006 1353.2 4004.53 1353.89 4002.34C1354.57 4000.14 1352.51 3998.31 1349.4 3998.31C1346.3 3998.31 1344.23 4000.14 1344.92 4002.34Z" fill="white" fill-opacity="0.04"/>
<path d="M1374.37 4001.91C1373.31 4004.15 1374.73 4006.77 1377.91 4007.9C1384.64 4010.89 1388.54 4007.9 1385 4002.28C1382.16 3997.04 1377.21 3997.04 1374.37 4001.91Z" fill="white" fill-opacity="0.04"/>
</g>
<defs>
<filter id="filter0_f_4170_6485" x="878" y="1087" width="1007" height="1007" filterUnits="userSpaceOnUse" color-interpolation-filters="sRGB">
<feFlood flood-opacity="0" result="BackgroundImageFix"/>
<feBlend mode="normal" in="SourceGraphic" in2="BackgroundImageFix" result="shape"/>
<feGaussianBlur stdDeviation="178" result="effect1_foregroundBlur_4170_6485"/>
</filter>
<filter id="filter1_f_4170_6485" x="-367" y="2048" width="1007" height="1007" filterUnits="userSpaceOnUse" color-interpolation-filters="sRGB">
<feFlood flood-opacity="0" result="BackgroundImageFix"/>
<feBlend mode="normal" in="SourceGraphic" in2="BackgroundImageFix" result="shape"/>
<feGaussianBlur stdDeviation="178" result="effect1_foregroundBlur_4170_6485"/>
</filter>
<filter id="filter2_f_4170_6485" x="814" y="3101" width="1007" height="1007" filterUnits="userSpaceOnUse" color-interpolation-filters="sRGB">
<feFlood flood-opacity="0" result="BackgroundImageFix"/>
<feBlend mode="normal" in="SourceGraphic" in2="BackgroundImageFix" result="shape"/>
<feGaussianBlur stdDeviation="178" result="effect1_foregroundBlur_4170_6485"/>
</filter>
<filter id="filter3_f_4170_6485" x="-302" y="4299" width="1007" height="1007" filterUnits="userSpaceOnUse" color-interpolation-filters="sRGB">
<feFlood flood-opacity="0" result="BackgroundImageFix"/>
<feBlend mode="normal" in="SourceGraphic" in2="BackgroundImageFix" result="shape"/>
<feGaussianBlur stdDeviation="178" result="effect1_foregroundBlur_4170_6485"/>
</filter>
<linearGradient id="paint0_linear_4170_6485" x1="1234" y1="1590.5" x2="1529" y2="1590.5" gradientUnits="userSpaceOnUse">
<stop stop-color="#F7EFC1"/>
<stop offset="1" stop-color="#E0BC6B"/>
</linearGradient>
<linearGradient id="paint1_linear_4170_6485" x1="-11" y1="2551.5" x2="284" y2="2551.5" gradientUnits="userSpaceOnUse">
<stop stop-color="#F7EFC1"/>
<stop offset="1" stop-color="#E0BC6B"/>
</linearGradient>
<linearGradient id="paint2_linear_4170_6485" x1="1170" y1="3604.5" x2="1465" y2="3604.5" gradientUnits="userSpaceOnUse">
<stop stop-color="#F7EFC1"/>
<stop offset="1" stop-color="#E0BC6B"/>
</linearGradient>
<linearGradient id="paint3_linear_4170_6485" x1="54" y1="4802.5" x2="349" y2="4802.5" gradientUnits="userSpaceOnUse">
<stop stop-color="#F7EFC1"/>
<stop offset="1" stop-color="#E0BC6B"/>
</linearGradient>
<clipPath id="clip0_4170_6485">
<rect width="1440" height="6479" fill="white"/>
</clipPath>
</defs>
</svg>
